<svg width="28" height="28" viewBox="0 0 28 28" fill="none" xmlns="http://www.w3.org/2000/svg">
<g id="mdi:discount" clip-path="url(#clip0_3604_605)">
<path id="Vector" d="M23.3799 10.1616V4.6666H17.8966L13.9999 0.804932L10.1616 4.6666H4.6666V10.1616L0.804932 13.9999L4.6666 17.8966V23.3799H10.1616L13.9999 27.2416L17.8966 23.3799H23.3799V17.8966L27.2416 13.9999L23.3799 10.1616ZM10.3016 8.22493C11.4449 8.22493 12.3666 9.1466 12.3666 10.3016C12.3666 10.8493 12.149 11.3745 11.7618 11.7618C11.3745 12.149 10.8493 12.3666 10.3016 12.3666C9.1466 12.3666 8.22493 11.4449 8.22493 10.3016C8.22493 9.1466 9.1466 8.22493 10.3016 8.22493ZM17.7566 19.8333C16.6133 19.8333 15.6916 18.8999 15.6916 17.7566C15.6916 17.2089 15.9092 16.6837 16.2964 16.2964C16.6837 15.9092 17.2089 15.6916 17.7566 15.6916C18.8999 15.6916 19.8333 16.6133 19.8333 17.7566C19.8333 18.3074 19.6145 18.8356 19.225 19.225C18.8356 19.6145 18.3074 19.8333 17.7566 19.8333ZM9.9166 19.8683L8.1666 18.1183L18.1183 8.1666L19.8683 9.9166L9.9166 19.8683Z" fill="url(#paint0_linear_3604_605)"/>
</g>
<defs>
<linearGradient id="paint0_linear_3604_605" x1="10.2464" y1="-2.58217" x2="21.4298" y2="34.8576" gradientUnits="userSpaceOnUse">
<stop stop-color="#FFE9BD"/>
<stop offset="1" stop-color="#FFC552"/>
</linearGradient>
<clipPath id="clip0_3604_605">
<rect width="28" height="28" fill="white"/>
</clipPath>
</defs>
</svg>
