<svg width="12" height="12" viewBox="0 0 12 12" fill="none" xmlns="http://www.w3.org/2000/svg">
<path d="M10.4363 0.9487C10.2546 0.847566 10.0547 0.783252 9.84804 0.759434C9.64142 0.735616 9.43213 0.752762 9.23214 0.809892C9.03215 0.867022 8.84538 0.963015 8.68252 1.09238C8.51965 1.22175 8.38389 1.38195 8.28298 1.56382L5.34352 6.85374L3.66123 5.17145C3.51517 5.02023 3.34046 4.8996 3.14729 4.81662C2.95412 4.73364 2.74635 4.68996 2.53612 4.68814C2.32588 4.68631 2.11739 4.72637 1.92281 4.80598C1.72822 4.88559 1.55144 5.00316 1.40277 5.15182C1.25411 5.30049 1.13654 5.47727 1.05693 5.67186C0.97732 5.86644 0.937259 6.07493 0.939086 6.28517C0.940913 6.4954 0.984591 6.70317 1.06757 6.89634C1.15055 7.08951 1.27117 7.26423 1.4224 7.41028L4.58907 10.577C4.88832 10.877 5.29207 11.0417 5.70848 11.0417L5.92777 11.0258C6.17046 10.9919 6.40195 10.9021 6.60403 10.7634C6.80611 10.6248 6.97326 10.4412 7.09232 10.227L11.0506 3.10203C11.1517 2.92031 11.216 2.72045 11.2398 2.51389C11.2636 2.30732 11.2465 2.09808 11.1895 1.89813C11.1324 1.69817 11.0366 1.51141 10.9073 1.3485C10.7781 1.1856 10.618 1.04975 10.4363 0.9487Z" fill="url(#paint0_linear_3497_1721)"/>
<defs>
<linearGradient id="paint0_linear_3497_1721" x1="4.00006" y1="-0.5" x2="6.09463" y2="11.0417" gradientUnits="userSpaceOnUse">
<stop stop-color="#FFD569"/>
<stop offset="1" stop-color="#FFBB0C"/>
</linearGradient>
</defs>
</svg>
